<?xml version="1.0" encoding="UTF-8" standalone="no"?>
<!DOCTYPE svg PUBLIC "-//W3C//DTD SVG 1.1//EN" "http://www.w3.org/Graphics/SVG/1.1/DTD/svg11.dtd">
<svg width="100%" height="100%" viewBox="0 0 276 81" version="1.1" xmlns="http://www.w3.org/2000/svg" xmlns:xlink="http://www.w3.org/1999/xlink" xml:space="preserve" xmlns:serif="http://www.serif.com/" style="fill-rule:evenodd;clip-rule:evenodd;stroke-linejoin:round;stroke-miterlimit:2;">
    <g transform="matrix(1,0,0,1,-40,-1168)">
        <g transform="matrix(1,0,0,0.36,11,1142.4)">
            <g transform="matrix(1.03384,0,0,2.87179,167.295,183.659)">
                <g transform="matrix(1,0,0,1,-132.96,-39.12)">
                    <g transform="matrix(1,0,0,1,0,-32.5143)">
                        <rect x="4.89" y="45.317" width="13.297" height="20.12" style="fill:white;"/>
                    </g>
                    <g transform="matrix(1,0,0,1,0,-25.5898)">
                        <path d="M59.505,45.957C59.505,45.957 57.864,37.718 47.422,37.628C38.329,37.538 37.025,41.371 37.025,41.371L37.025,38.28L24.942,38.28L24.942,66.291L37.306,66.291L37.306,56.737C37.306,56.737 49.277,63.761 55.942,56.737C61.09,51.296 59.505,45.957 59.505,45.957M42.645,53.454C39.951,53.46 37.762,51.281 37.756,48.587C37.75,45.893 39.928,43.704 42.622,43.698C45.317,43.692 47.506,45.87 47.512,48.565L47.512,48.587C47.512,51.275 45.333,53.454 42.645,53.454" style="fill:white;fill-rule:nonzero;"/>
                    </g>
                    <g transform="matrix(1,0,0,1,0,-61.8507)">
                        <rect x="4.8" y="66.673" width="13.488" height="6.744" style="fill:rgb(227,38,37);"/>
                    </g>
                    <g transform="matrix(1,0,0,1,0,-39.5618)">
                        <path d="M119.403,56.748L119.403,72.484L107.039,72.484L107.039,61.244C107.039,58.761 105.026,56.748 102.543,56.748C100.059,56.748 98.047,58.761 98.047,61.244L98.047,72.484L86.807,72.484L86.807,61.244C86.785,58.761 84.755,56.766 82.272,56.788C79.788,56.809 77.794,58.84 77.815,61.323C77.81,61.401 77.81,61.481 77.815,61.559L77.815,72.484L65.451,72.484L65.451,52.253L76.691,52.253L76.691,54.691L77.815,54.691C90.179,46.351 97.62,55.624 97.62,55.624C109.961,45.317 119.403,56.748 119.403,56.748" style="fill:white;fill-rule:nonzero;"/>
                    </g>
                    <g transform="matrix(1,0,0,1,0,22.3592)">
                        <path d="M39.003,29.143C38.982,29.04 38.956,28.939 38.925,28.839C38.66,27.941 38.283,27.08 37.801,26.277C36.979,24.89 35.867,23.698 34.541,22.781C34.209,22.557 33.864,22.354 33.507,22.174C32.964,21.88 32.396,21.636 31.81,21.443C31.596,21.376 31.382,21.309 31.169,21.264L30.506,21.106L30.27,21.106C26.662,20.333 22.898,20.816 19.604,22.477L18.288,23.039L18.288,12.811L4.868,12.811L4.868,43.069L17.231,43.069L17.231,39.697C20.635,41.943 24.686,42.998 28.752,42.698C29.79,42.609 30.818,42.425 31.821,42.148L31.9,42.148C33.226,41.705 34.451,41.006 35.508,40.091C35.658,39.969 35.8,39.837 35.935,39.697L36.104,39.54C36.195,39.458 36.277,39.368 36.351,39.27C37.478,38.075 38.323,36.643 38.824,35.078C39.116,33.977 39.263,32.844 39.262,31.705C39.264,30.845 39.177,29.986 39.003,29.143M22.627,36.392C20.144,36.423 18.106,34.436 18.075,31.953C18.044,29.471 20.032,27.432 22.514,27.401C24.997,27.37 27.035,29.358 27.066,31.841L27.066,31.897C27.104,34.342 25.152,36.355 22.706,36.392C22.679,36.392 22.653,36.393 22.627,36.392" style="fill:white;fill-rule:nonzero;"/>
                    </g>
                    <g transform="matrix(1,0,0,1,0,30.2502)">
                        <path d="M77.817,12.788L77.817,35.178L65.453,35.178L65.453,32.009L64.846,32.009C62.742,33.255 60.471,34.193 58.102,34.796L57.866,34.853C57.092,35.023 56.307,35.139 55.516,35.201L54.168,35.201C52.278,35.072 50.456,34.448 48.885,33.391C48.307,32.986 47.772,32.523 47.289,32.009C47.131,31.863 46.984,31.705 46.85,31.537C46.175,30.811 45.61,29.989 45.176,29.097C45.053,28.868 44.944,28.631 44.85,28.389C44.648,27.906 44.479,27.411 44.344,26.905C44.344,26.669 44.232,26.433 44.198,26.198C44.149,25.971 44.111,25.742 44.086,25.512L44.086,25.343C44.097,25.208 44.097,25.073 44.086,24.939L44.086,12.9L57.54,12.9L57.54,26.299C57.54,28.496 59.321,30.278 61.519,30.278C63.716,30.278 65.498,28.496 65.498,26.299L65.498,12.811L77.817,12.788Z" style="fill:white;fill-rule:nonzero;"/>
                    </g>
                    <g transform="matrix(1,0,0,1,0,30.3172)">
                        <path d="M86.808,12.721L99.216,12.721L99.216,35.201L86.808,35.201C86.808,35.201 86.777,12.721 86.808,12.721" style="fill:white;fill-rule:nonzero;"/>
                    </g>
                    <g transform="matrix(1,0,0,1,0,-1.1884)">
                        <rect x="86.795" y="36.325" width="12.421" height="6.778" style="fill:white;"/>
                    </g>
                    <g transform="matrix(1,0,0,1,0,22.3815)">
                        <rect x="107.05" y="12.811" width="12.397" height="30.236" style="fill:white;"/>
                    </g>
                    <g transform="matrix(1,0,0,1,0,30.0932)">
                        <path d="M166.588,12.833L180.076,12.833L180.076,35.313L166.588,35.313C166.588,35.313 166.554,12.833 166.588,12.833" style="fill:white;fill-rule:nonzero;"/>
                    </g>
                    <g transform="matrix(1,0,0,1,0,-1.4124)">
                        <rect x="166.588" y="36.437" width="13.488" height="6.778" style="fill:white;"/>
                    </g>
                    <g transform="matrix(1,0,0,1,0,22.3932)">
                        <path d="M159.867,12.822L146.379,12.822L146.379,21.814C146.379,21.814 145.636,21.634 144.457,21.443C142.414,21.083 140.348,20.88 138.275,20.836C137.238,20.819 136.201,20.875 135.172,21.005C133.628,21.302 132.167,21.93 130.89,22.848L130.429,23.185C130.283,23.298 130.148,23.433 130.002,23.568C129.539,23.974 129.114,24.422 128.732,24.905C128.504,25.184 128.294,25.477 128.102,25.781C126.907,27.547 126.264,29.629 126.259,31.762L126.259,31.84C126.253,31.937 126.253,32.035 126.259,32.133L126.259,33.178C126.281,33.408 126.315,33.637 126.36,33.863C126.36,34.099 126.462,34.335 126.517,34.571C126.651,35.157 126.827,35.732 127.046,36.291C127.136,36.524 127.237,36.76 127.349,36.999C127.807,37.87 128.386,38.673 129.069,39.382C129.204,39.54 129.338,39.697 129.496,39.854C130.002,40.355 130.556,40.807 131.149,41.203C132.703,42.25 134.506,42.87 136.375,43.001L139.039,43.001L139.949,42.934C140.668,42.856 141.377,42.702 142.063,42.473L142.141,42.473C143.471,42.031 144.7,41.332 145.76,40.416C145.911,40.294 146.054,40.162 146.188,40.023L146.356,39.866L146.446,39.776L147.57,39.776L147.57,43.058L159.934,43.058C159.934,43.058 159.833,12.788 159.867,12.822M141.882,27.356C144.366,27.318 146.408,29.3 146.445,31.784C146.483,34.266 144.501,36.309 142.017,36.347C139.535,36.384 137.492,34.401 137.454,31.919L137.454,31.851C137.423,29.4 139.386,27.387 141.837,27.356L141.928,27.356L141.882,27.356Z" style="fill:white;fill-rule:nonzero;"/>
                    </g>
                    <g transform="matrix(1,0,0,1,0,25.4392)">
                        <path d="M220.607,22.095L220.607,39.978L207.12,39.978L207.12,26.58C207.103,26.372 207.069,26.164 207.018,25.962C207.015,25.924 207.015,25.887 207.018,25.849C206.995,25.761 206.965,25.675 206.928,25.591C206.847,25.356 206.741,25.13 206.613,24.916C206.498,24.709 206.359,24.517 206.198,24.343C205.979,24.077 205.722,23.845 205.433,23.657C205.314,23.576 205.19,23.501 205.063,23.432C204.861,23.331 204.655,23.241 204.444,23.163L204.208,23.107L203.208,23.107C203.013,23.095 202.818,23.095 202.623,23.107L202.444,23.107C202.232,23.141 202.025,23.197 201.825,23.276C201.505,23.389 201.202,23.549 200.926,23.748L200.768,23.871C200.714,23.913 200.661,23.957 200.612,24.006C200.45,24.152 200.3,24.31 200.162,24.478C200.081,24.578 200.006,24.684 199.937,24.792C199.567,25.338 199.343,25.969 199.285,26.624L199.285,39.978L185.797,39.978L185.797,17.633L198.161,17.633L198.161,22.691L200.308,20.971C210.952,12.822 220.607,22.095 220.607,22.095" style="fill:white;fill-rule:nonzero;"/>
                    </g>
                    <g transform="matrix(1,0,0,1,0,38.6022)">
                        <path d="M261.026,4.481L248.663,4.481L248.663,8.404L246.414,6.684C242.956,4.548 238.793,3.874 234.837,4.807L234.376,4.897C233.881,5.02 233.365,5.155 232.837,5.324C232.034,5.619 231.278,6.023 230.588,6.527C230.456,6.636 230.317,6.737 230.173,6.83L229.79,7.167C229.385,7.538 229.009,7.94 228.666,8.37C228.464,8.621 228.276,8.884 228.104,9.157C227.176,10.537 226.616,12.131 226.474,13.787L226.474,14.665C226.469,14.751 226.469,14.837 226.474,14.923C226.469,14.99 226.469,15.058 226.474,15.126L226.474,15.35C226.486,15.469 226.486,15.59 226.474,15.71L226.474,15.856C226.491,16.064 226.525,16.272 226.576,16.474C226.606,16.69 226.647,16.904 226.699,17.115C226.824,17.567 226.978,18.009 227.16,18.442C227.244,18.661 227.342,18.875 227.453,19.082L227.588,19.341C227.689,19.531 227.801,19.722 227.914,19.903C228.216,20.386 228.563,20.841 228.948,21.262C229.069,21.413 229.2,21.556 229.341,21.689C229.798,22.146 230.298,22.556 230.836,22.914C231.707,23.499 232.667,23.94 233.679,24.219C233.774,24.253 233.872,24.275 233.972,24.286L234.185,24.286C234.534,24.354 234.904,24.409 235.309,24.466L235.579,24.466C238.176,24.75 240.798,24.693 243.379,24.297L243.751,24.297C244.931,24.129 246.2,23.893 247.572,23.578L247.572,26.95C246.92,27.611 246.16,28.154 245.324,28.557C244.403,28.978 243.413,29.226 242.402,29.287C242.215,29.299 242.027,29.299 241.84,29.287C239.157,29.298 236.639,27.997 235.096,25.803L226.34,25.803C226.559,27.191 227.123,28.501 227.981,29.614C228.772,30.618 229.778,31.433 230.925,31.997C231.067,32.073 231.214,32.141 231.364,32.199C232.639,32.785 233.954,33.28 235.298,33.683C242.286,35.763 249.818,34.954 256.205,31.435L256.632,31.21C257.742,30.596 258.701,29.744 259.441,28.714C259.642,28.437 259.825,28.148 259.992,27.849C260.71,26.608 261.097,25.203 261.116,23.769C261.121,23.72 261.121,23.671 261.116,23.623L261.116,4.548C261.116,4.548 261.037,4.47 261.026,4.481M242.728,18.587C242.028,18.59 241.344,18.387 240.761,18.002C240.477,17.826 240.223,17.606 240.008,17.351C239.443,16.694 239.132,15.856 239.13,14.991C239.125,14.3 239.325,13.623 239.704,13.046C240.776,11.367 243.007,10.874 244.687,11.946C245.451,12.434 246.003,13.192 246.234,14.069C246.239,14.129 246.239,14.189 246.234,14.248C246.289,14.489 246.315,14.734 246.313,14.979C246.317,15.361 246.26,15.74 246.145,16.103C245.654,17.577 244.281,18.576 242.728,18.587" style="fill:white;fill-rule:nonzero;"/>
                    </g>
                </g>
            </g>
        </g>
    </g>
</svg>
